<svg width="138" height="135" viewBox="0 0 138 135" fill="none" xmlns="http://www.w3.org/2000/svg">
<g filter="url(#filter0_d_1568_12221)">
<g opacity="0.5">
<rect y="3" width="113" height="113" rx="33.9" fill="#D9D9D9"/>
</g>
<path d="M82.3599 65.8037L76.9544 60.3982V53.2376C76.9482 48.2891 75.1074 43.5187 71.7879 39.8487C68.4683 36.1788 63.9059 33.8701 58.9829 33.369V29.2755H54.9892V33.369C50.0662 33.8701 45.5038 36.1788 42.1842 39.8487C38.8647 43.5187 37.0239 48.2891 37.0177 53.2376V60.3982L31.6122 65.8037C31.2377 66.1781 31.0273 66.6859 31.0272 67.2154V73.2059C31.0272 73.7355 31.2375 74.2434 31.612 74.6179C31.9865 74.9924 32.4944 75.2028 33.024 75.2028H47.0019V76.7543C46.9584 79.2876 47.8513 81.7478 49.5095 83.6635C51.1676 85.5792 53.4743 86.8156 55.9876 87.1359C57.3758 87.2735 58.7774 87.1191 60.1023 86.6826C61.4272 86.2461 62.6461 85.537 63.6805 84.6012C64.7149 83.6653 65.542 82.5232 66.1086 81.2485C66.6752 79.9738 66.9687 78.5946 66.9702 77.1996V75.2028H80.9481C81.4777 75.2028 81.9856 74.9924 82.3601 74.6179C82.7346 74.2434 82.9449 73.7355 82.9449 73.2059V67.2154C82.9448 66.6859 82.7344 66.1781 82.3599 65.8037ZM62.9766 77.1996C62.9766 78.7884 62.3454 80.3121 61.222 81.4356C60.0985 82.559 58.5748 83.1901 56.9861 83.1901C55.3973 83.1901 53.8736 82.559 52.7501 81.4356C51.6267 80.3121 50.9955 78.7884 50.9955 77.1996V75.2028H62.9766V77.1996ZM78.9513 71.2091H35.0208V68.0421L40.4263 62.6367C40.8008 62.2623 41.0112 61.7545 41.0113 61.2249V53.2376C41.0113 49.0008 42.6944 44.9376 45.6902 41.9417C48.6861 38.9459 52.7493 37.2629 56.9861 37.2629C61.2228 37.2629 65.286 38.9459 68.2819 41.9417C71.2777 44.9376 72.9608 49.0008 72.9608 53.2376V61.2249C72.9609 61.7545 73.1713 62.2623 73.5458 62.6367L78.9513 68.0421V71.2091Z" fill="#242E49"/>
</g>
<defs>
<filter id="filter0_d_1568_12221" x="0" y="0.309524" width="137.214" height="134.524" filterUnits="userSpaceOnUse" color-interpolation-filters="sRGB">
<feFlood flood-opacity="0" result="BackgroundImageFix"/>
<feColorMatrix in="SourceAlpha" type="matrix" values="0 0 0 0 0 0 0 0 0 0 0 0 0 0 0 0 0 0 127 0" result="hardAlpha"/>
<feOffset dx="13.4524" dy="8.07143"/>
<feGaussianBlur stdDeviation="5.38095"/>
<feComposite in2="hardAlpha" operator="out"/>
<feColorMatrix type="matrix" values="0 0 0 0 0 0 0 0 0 0 0 0 0 0 0 0 0 0 0.1 0"/>
<feBlend mode="normal" in2="BackgroundImageFix" result="effect1_dropShadow_1568_12221"/>
<feBlend mode="normal" in="SourceGraphic" in2="effect1_dropShadow_1568_12221" result="shape"/>
</filter>
</defs>
</svg>
