<svg width="355" height="452" viewBox="0 0 355 452" fill="none" xmlns="http://www.w3.org/2000/svg">
<path d="M203.888 481.876C201.71 474.865 199.562 467.854 197.354 460.843C168.166 368.126 131.687 277.615 88.3433 190.368C81.6284 176.859 74.6715 163.29 64.7807 151.806C54.8899 140.322 41.7021 130.954 26.5785 128.325C15.0543 126.33 3.22769 128.295 -8.20575 130.833C-17.4009 132.888 -26.6565 135.366 -34.793 140.05C-44.1999 145.46 -51.7012 153.619 -57.6902 162.504C-83.2188 200.371 -82.0089 249.147 -79.8614 294.478C-76.5947 363.441 -73.3582 432.435 -70.0915 501.399L203.888 481.876Z" fill="#0F67FE"/>
<path d="M40.1603 111.281C45.6956 113.245 51.1098 115.512 56.3729 118.111C80.1169 129.867 100.292 143.829 119.075 159.453C84.17 219.32 62.5735 286.954 46.4518 353.832C37.2264 273.173 32.9313 192.514 40.1603 111.281Z" fill="white"/>
<path d="M-142.502 247.213C-140.627 198.8 -119.484 155.463 -79.8297 125.877C-45.4689 100.22 0.537079 97.3489 40.1609 111.311C32.9016 192.514 37.1967 273.173 46.4523 353.832C62.5741 286.953 84.1706 219.319 119.076 159.452C140.672 177.403 160.454 197.53 181.657 218.987C204.615 242.227 237.161 254.043 269.616 258.213C291.908 261.084 317.195 259.664 332.954 243.708C333.77 253.439 334.617 263.17 335.434 272.901C337.249 294.116 339.064 315.602 335.797 336.636C332.56 357.7 323.728 378.613 307.455 392.454C284.709 411.795 251.075 413.91 222.461 405.328C193.847 396.745 168.984 379.005 144.756 361.568L-23.1162 455.403C-40.3874 441.23 -62.6493 433.886 -79.0433 418.746C-89.1458 409.407 -96.5262 397.561 -103.423 385.684C-128.739 341.955 -144.498 299.072 -142.502 247.213Z" fill="#0F67FE"/>
<path d="M191.133 292.079C184.023 272.339 209.706 245.03 248.498 231.082C287.289 217.135 324.5 221.83 331.61 241.57C338.72 261.31 313.037 288.619 274.245 302.567C235.454 316.514 198.243 311.819 191.133 292.079Z" fill="#090E1D"/>
<path d="M319.584 264.651C315.712 247.244 311.81 229.836 307.939 212.429C307.243 209.317 306.547 206.174 306.789 203.001C307.061 199.132 308.695 195.506 310.328 191.97C314.169 183.569 317.981 175.198 321.822 166.796C325.633 158.455 329.505 149.298 327.236 140.444C324.937 131.589 295.507 133.07 288.611 139.144C331.199 62.0816 253.857 82.7525 254.552 91.6676C255.974 110.707 306.759 80.7277 255.732 133.433C205.219 165.436 217.257 121.435 203.132 129.957C181.082 143.254 185.105 172.085 187.252 192.846C188.674 206.748 192.364 220.317 196.024 233.826C201.105 252.623 203.828 263.925 208.153 280.305C209.998 287.316 216.955 295.355 224.184 296.141C253.796 299.465 298.35 282.964 319.584 264.651Z" fill="#A6CBFF"/>
<path d="M192.847 287.921C198.594 304.542 203.041 321.526 206.217 338.812C206.519 340.565 203.857 341.29 203.555 339.538C200.409 322.251 195.933 305.267 190.186 288.646C189.581 286.954 192.242 286.228 192.847 287.921Z" fill="#090E1D"/>
<path d="M171.343 384.112C151.985 369.244 133.716 353.045 116.656 335.548C115.416 334.278 117.382 332.314 118.623 333.583C135.5 350.9 153.558 366.977 172.735 381.695C174.126 382.783 172.765 385.2 171.343 384.112Z" fill="#090E1D"/>
<path d="M218.679 162.444C227.511 171.843 239.368 185.654 243.481 197.863C252.162 223.55 231.201 224.88 219.949 223.218C217.953 222.916 211.813 225.575 210.421 225.031C204.977 222.855 201.377 229.02 198.504 223.913C196.931 221.133 196.447 217.869 196.024 214.696C195.6 211.643 195.177 208.621 194.753 205.569C193.937 199.676 193.09 193.723 193.816 187.83C194.511 181.937 196.961 176.013 201.589 172.266C205.703 168.972 211.117 167.703 216.38 167.431L218.679 162.444Z" fill="#A6CBFF"/>
<path d="M280.293 148.875C287.492 141.32 294.449 133.554 301.708 126.089C308.907 118.685 314.443 111.825 318.102 102.154C319.282 99.0114 320.976 95.8685 323.849 94.1761C331.169 89.915 335.071 98.3163 335.011 104.179C334.89 116.691 329.475 128.809 322.579 139.054C316.227 148.483 308.242 156.703 300.136 164.681C314.745 150.84 325.543 131.831 342.572 120.559C344.357 119.38 349.681 120.015 351.556 120.468C355.518 121.435 354.762 128.356 353.008 132.979C344.206 156.159 328.084 174.019 310.873 189.794L280.293 148.875Z" fill="#A6CBFF"/>
<path d="M346.655 139.477C346.504 134.128 347.654 128.991 349.983 124.186C350.769 122.584 353.159 123.974 352.372 125.576C350.255 129.958 349.287 134.612 349.408 139.477C349.468 141.26 346.716 141.26 346.655 139.477Z" fill="#090E1D"/>
<path d="M200.862 131.558C206.246 128.203 213.687 124.789 219.676 122.613C224.092 121.011 229.265 120.195 233.923 120.255C238.278 120.316 246.778 123.036 241.212 128.536C234.286 135.366 225.937 140.745 216.833 144.16L200.862 131.558Z" fill="#A6CBFF"/>
<path d="M200.168 130.35C207.366 125.968 215.654 121.737 223.912 119.893C229.417 118.654 237.462 117.506 242.302 121.374C252.314 129.352 222.248 143.465 217.166 145.46C215.503 146.095 214.777 143.435 216.441 142.8C222.49 140.443 228.207 137.331 233.379 133.432C235.527 131.83 238.672 129.775 240.215 127.539C242.907 123.61 239.428 122.462 236.131 121.858C224.486 119.742 211.117 126.904 201.559 132.737C200.047 133.674 198.655 131.286 200.168 130.35Z" fill="#090E1D"/>
<path d="M242.24 124.063C237.158 128.627 229.627 128.294 225.271 122.915C224.152 121.555 226.118 119.56 227.237 120.951C230.625 125.121 236.22 125.756 240.274 122.099C241.604 120.92 243.57 122.855 242.24 124.063Z" fill="#090E1D"/>
<path d="M119.892 90.8516C132.898 84.9888 134.411 64.9223 124.52 54.6473C114.629 44.3722 97.8719 43.2843 84.5934 48.5729C77.4248 51.4439 70.71 55.9468 63.0272 56.7929C48.69 58.3946 36.4701 47.213 22.9194 42.3172C8.49146 37.0891 -8.44693 39.416 -20.9088 48.3009C-28.9848 54.0428 -35.3972 62.414 -44.6831 65.9498C-54.9369 69.8483 -66.3703 67.0377 -77.0778 64.6201C-95.6194 60.4496 -117.67 58.5759 -131.039 72.0241C-138.601 79.6397 -141.746 90.8818 -149.611 98.1952C-160.983 108.742 -178.376 108.138 -193.892 107.745C-209.409 107.352 -227.376 109.075 -236.148 121.828C-248.035 139.144 -234.514 163.593 -241.199 183.508C-246.311 198.679 -261.858 207.594 -271.144 220.68C-287.356 243.466 -279.915 279.308 -255.96 293.814C-248.761 298.165 -240.594 300.704 -232.337 302.457C-219.33 305.237 -205.628 306.204 -192.804 302.668C-179.979 299.132 -168.092 290.61 -162.798 278.431C-157.535 266.343 -157.687 249.994 -146.011 243.829C-142.109 241.743 -137.512 241.35 -133.096 241.29C-121.541 241.079 -109.926 242.771 -98.4021 241.622C-86.8779 240.474 -74.9303 235.911 -68.6389 226.21C-59.353 211.916 -64.7672 190.67 -53.0313 178.31C-41.7189 166.403 -21.302 169.848 -7.63028 160.752C9.55012 149.298 10.3365 122.342 27.4565 110.797C38.3454 103.423 52.8036 104.511 65.6889 107.231C72.4945 108.682 80.5403 110.193 85.6823 105.509C88.344 103.091 89.5539 99.5552 91.4292 96.5029C96.8132 87.8295 108.64 83.7498 118.259 87.2251L119.892 90.8516Z" fill="#090E1D"/>
<path d="M126.124 66.5532C129.179 53.6792 114.569 45.3685 104.043 43.1322C91.5816 40.4728 80.9951 44.4015 70.0759 50.0225C62.1511 54.1023 54.2263 56.5502 45.3639 54.0721C37.6206 51.9264 30.8755 47.2422 24.1001 43.1322C16.1754 38.3271 7.73643 33.8544 -1.82169 34.5193C-10.8353 35.1237 -18.9416 39.7777 -26.3824 44.5223C-40.7196 53.7094 -54.3913 64.468 -72.3279 63.7125C-92.17 62.8965 -114.039 49.8412 -133.397 59.3305C-142.985 64.0449 -149.065 73.0809 -150.759 83.4465C-152.241 92.3919 -153.3 100.31 -160.952 106.082C-176.287 117.656 -196.281 111.733 -213.764 112.066C-225.469 112.277 -236.57 116.296 -243.285 126.33C-249.244 135.215 -248.881 145.641 -248.366 155.885C-247.852 165.858 -247.278 176.859 -253.75 185.23C-258.953 191.969 -268.148 195.777 -276.617 194.084C-283.937 192.634 -291.015 185.169 -285.752 177.826C-280.792 170.905 -270.689 174.078 -269.116 181.936C-268.783 183.688 -271.445 184.414 -271.778 182.661C-272.534 178.914 -276.194 175.62 -280.217 176.919C-284.905 178.43 -285.964 184.232 -283 187.708C-279.309 192.029 -272.504 192.301 -267.422 191.032C-255.959 188.161 -251.21 177.463 -250.877 166.584C-250.605 157.366 -252.268 148.149 -250.968 138.962C-249.818 130.953 -245.947 123.58 -239.867 118.2C-224.592 104.722 -204.448 111.008 -186.178 110.645C-177.467 110.464 -167.697 108.59 -161.043 102.546C-153.027 95.2326 -155.114 84.3834 -151.485 75.1056C-145.163 59.0283 -128.981 51.9264 -112.466 53.5885C-93.4707 55.4924 -74.7477 65.3746 -55.6919 58.4238C-40.3566 52.833 -28.6812 40.4425 -13.5274 34.4589C-6.60077 31.739 0.840042 30.8324 8.09937 32.6154C16.0241 34.5495 22.9508 39.1733 29.8169 43.374C38.0743 48.451 47.3602 53.9512 57.4628 51.9566C68.6845 49.7505 77.3957 41.5003 88.9501 39.8684C104.467 37.6622 133.686 46.3356 128.725 67.2483C128.392 69.0011 125.7 68.2758 126.124 66.5532Z" fill="#090E1D"/>
<path d="M54.0441 149.542L112.966 56.5534C112.966 56.5534 146.298 100.252 127 136.91L108.701 123.794L101.623 167.765C99.0217 183.903 82.053 193.453 66.8991 187.318C66.6269 187.228 66.3849 187.107 66.1127 187.016C51.2916 180.911 45.4841 163.021 54.0441 149.542Z" fill="#A6CBFF"/>
<path d="M84.8042 95.8711C78.3895 95.8711 73.1893 90.6754 73.1893 84.2663C73.1893 77.8572 78.3895 72.6616 84.8042 72.6616C91.219 72.6616 96.4191 77.8572 96.4191 84.2663C96.4191 90.6754 91.219 95.8711 84.8042 95.8711Z" fill="#A6CBFF"/>
<path d="M87.4038 89.3422C84.7421 86.0179 82.0803 82.6936 79.3581 79.4298C78.2389 78.0699 80.1748 76.1055 81.3242 77.4655C84.0464 80.7293 86.7081 84.0536 89.3699 87.3778C90.4588 88.768 88.4927 90.7323 87.4038 89.3422Z" fill="#090E1D"/>
<path d="M108.7 123.794L101.985 165.256L95.8753 113.186L108.7 123.794Z" fill="#090E1D"/>
<path d="M127.029 80.7299C130.78 87.2877 134.198 94.4198 136.648 101.582C136.98 102.61 135.922 103.546 134.954 103.274C132.08 102.489 129.207 101.733 126.363 100.947C124.639 100.494 125.365 97.8045 127.089 98.2881C129.963 99.0738 132.836 99.8293 135.68 100.615C135.105 101.189 134.53 101.763 133.986 102.307C131.627 95.3869 128.269 88.4664 124.639 82.12C123.732 80.5788 126.152 79.1886 127.029 80.7299Z" fill="#090E1D"/>
<path d="M333.832 97.2885C332.35 102.124 332.985 106.989 335.677 111.281C336.614 112.792 334.225 114.182 333.287 112.671C330.232 107.775 329.506 102.063 331.17 96.5632C331.654 94.8406 334.346 95.5659 333.832 97.2885Z" fill="#090E1D"/>
<path d="M271.823 86.4693C267.86 90.7606 262.053 92.4832 256.366 91.1535C254.642 90.7304 255.368 88.071 257.092 88.4941C261.841 89.6123 266.56 88.1314 269.857 84.5352C271.066 83.1753 273.002 85.1396 271.823 86.4693Z" fill="#090E1D"/>
<path d="M326.541 135.306C317.134 148.512 304.854 159.21 290.456 166.705C288.883 167.521 287.462 165.134 289.065 164.318C303.039 157.065 315.017 146.729 324.152 133.916C325.18 132.465 327.569 133.855 326.541 135.306Z" fill="#090E1D"/>
<path d="M218.437 158.124C232.048 170.545 239.338 188.586 238.068 206.961C237.947 208.713 235.164 208.744 235.285 206.961C236.495 189.251 229.598 172.026 216.471 160.058C215.14 158.88 217.106 156.915 218.437 158.124Z" fill="#090E1D"/>
<path d="M277.238 177.041C270.039 181.362 265.048 187.981 261.328 195.385C257.426 203.182 253.555 212.278 252.163 220.921C251.891 222.674 249.199 221.919 249.501 220.196C250.984 210.828 255.248 200.915 259.695 192.544C263.536 185.291 268.769 178.915 275.847 174.653C277.359 173.747 278.781 176.134 277.238 177.041Z" fill="#090E1D"/>
<path d="M121.796 165.376C115.445 199.827 109.093 234.279 102.741 268.73C102.59 269.607 101.41 270 100.714 269.546C92.7592 264.56 84.8344 259.573 76.8794 254.557C75.367 253.62 76.7584 251.202 78.2708 252.169C86.2258 257.156 94.1505 262.142 102.106 267.159C101.44 267.431 100.744 267.703 100.079 267.975C106.431 233.523 112.783 199.072 119.135 164.62C119.437 162.898 122.129 163.623 121.796 165.376Z" fill="#090E1D"/>
<path d="M36.1958 221.526C29.5111 223.007 22.8265 224.457 16.1419 225.938C13.8129 226.452 7.67267 229.172 6.13006 225.817C5.49487 224.427 6.25108 222.583 6.61405 221.254C7.43072 218.05 8.33813 214.877 9.18506 211.674C10.9394 204.995 12.6937 198.316 14.3876 191.607C21.1629 164.832 27.3636 137.905 32.9593 110.858C33.3223 109.105 35.984 109.86 35.6211 111.583C30.8118 134.792 25.579 157.941 19.8925 180.97C17.0795 192.333 14.1758 203.665 11.1511 214.998C10.8789 216.026 8.21712 222.855 8.82207 223.702C10.0017 225.424 16.5049 223.007 18.0475 222.674C23.8549 221.405 29.6926 220.105 35.5001 218.836C37.194 218.473 37.9199 221.133 36.1958 221.526Z" fill="#090E1D"/>
<path d="M84.4128 260.812C87.3771 270.633 90.3413 280.485 93.3055 290.307C94.6666 294.87 94.4549 294.568 91.2487 298.195C88.1635 301.73 85.1388 305.296 82.1745 308.953C70.0152 323.973 59.1564 340.02 49.5076 356.793C48.6304 358.334 46.2106 356.944 47.1181 355.402C55.92 340.111 65.7201 325.454 76.6091 311.552C79.3313 308.077 82.1141 304.662 84.9573 301.277C86.3789 299.585 87.8308 297.923 89.2826 296.261C91.2487 294.024 91.2184 293.027 90.3715 290.186C87.498 280.636 84.6246 271.087 81.7511 261.567C81.2369 259.814 83.8986 259.089 84.4128 260.812Z" fill="#090E1D"/>
<path d="M47.3598 358.577C37.1362 336.607 28.2133 314.092 20.6818 291.064C18.8064 285.322 17.0219 279.55 15.2978 273.748C14.3903 270.695 13.5434 267.643 12.6965 264.591C12.2428 262.929 11.0027 260.572 11.3354 258.849C11.7589 256.492 13.9669 253.651 14.9348 251.415C16.1749 248.483 17.2336 245.461 18.1108 242.379C19.8953 236.183 20.833 229.807 21.1052 223.4C21.1959 221.617 23.9485 221.617 23.888 223.4C23.404 234.008 21.1052 244.434 16.7496 254.135C15.4188 257.126 14.2088 258.849 14.9045 262.173C15.5397 265.256 16.6287 268.308 17.5058 271.33C19.1997 277.132 20.9842 282.905 22.8293 288.677C30.3911 312.037 39.4048 334.884 49.7796 357.157C50.4752 358.789 48.0857 360.179 47.3598 358.577Z" fill="#090E1D"/>
<path d="M223.821 336.546C220.079 336.546 217.046 333.515 217.046 329.777C217.046 326.038 220.079 323.007 223.821 323.007C227.563 323.007 230.597 326.038 230.597 329.777C230.597 333.515 227.563 336.546 223.821 336.546Z" fill="#090E1D"/>
<path d="M226.272 361.78C222.53 361.78 219.496 358.749 219.496 355.011C219.496 351.272 222.53 348.241 226.272 348.241C230.014 348.241 233.047 351.272 233.047 355.011C233.047 358.749 230.014 361.78 226.272 361.78Z" fill="#090E1D"/>
<path d="M236.405 221.164C244.057 181.938 242.666 141.261 237.222 101.823C236.677 97.773 242.908 96.0203 243.452 100.1C250.47 151.233 251.377 207.927 233.32 257.308C231.444 256.008 229.569 254.679 227.694 253.349C231.444 242.862 234.288 232.043 236.405 221.164Z" fill="#090E1D"/>
<path d="M50.8703 223.401C51.324 219.321 57.7969 219.291 57.3432 223.401C54.3488 249.39 53.3808 277.193 62.6667 302.125C70.8032 324.005 89.9194 343.044 113.452 347.517C128.817 350.448 145 345.25 158.55 338.269C172.313 331.198 184.654 321.648 194.998 310.164C209.85 293.694 220.466 274.111 227.756 253.349C229.631 254.679 231.507 255.978 233.382 257.308C226.727 275.531 217.472 292.757 205.01 308.351C185.743 332.406 154.86 354.407 122.859 354.74C97.2997 355.012 72.981 336.819 61.3963 314.939C46.666 287.257 47.3919 253.651 50.8703 223.401Z" fill="#090E1D"/>
<path d="M123.701 135.034C119.829 176.315 92.8789 209.074 55.7354 226.179C54.2835 226.844 52.0755 226.723 51.3193 225.031C31.0234 178.854 42.0636 122.583 76.7572 86.2274C79.6306 83.2054 84.198 87.7687 81.3245 90.7908C48.8088 124.849 37.829 178.34 56.8848 221.767C55.4027 221.374 53.9206 220.981 52.4687 220.619C87.4042 204.541 113.568 174.109 117.228 135.034C117.621 130.954 124.094 130.894 123.701 135.034Z" fill="#090E1D"/>
<path d="M88.7983 80.9089C90.8249 84.0519 90.6131 88.3432 88.7378 91.5164C86.923 94.5989 83.2933 96.9863 79.6031 96.7143C77.3346 96.5632 74.5216 95.5659 73.5537 93.2692C72.1926 90.0355 71.1944 87.1041 71.8296 83.5381C72.4346 80.093 74.9753 77.1615 78.363 76.2247C81.0248 75.4994 83.989 75.9527 86.318 77.4638C88.0724 78.5819 89.4032 80.2441 89.9779 82.2688C90.6434 84.5354 90.0989 86.5299 89.1612 88.6152C88.4958 90.096 86.5298 91.3653 85.0174 91.7883C83.3538 92.2417 81.1458 92.0301 79.6939 91.0933C76.276 88.8872 75.6105 85.17 77.2136 81.6342C77.2438 81.5738 77.2741 81.4831 77.3044 81.4227C77.0624 81.9969 76.8204 82.571 76.5784 83.1452C76.6087 83.0848 76.6087 82.9941 76.6389 82.9337C76.5482 83.5381 76.4877 84.1727 76.3969 84.7772C76.4272 84.0821 76.5784 84.5052 76.8204 85.986C76.9112 86.9833 77.3044 87.8294 78.0605 88.4943C78.2723 88.6756 79.7846 89.6125 78.7562 89.0987C79.3309 89.3405 79.9056 89.5822 80.4803 89.824C80.1778 89.7031 79.8754 89.6125 79.5427 89.5822C80.1476 89.6729 80.7828 89.7333 81.3877 89.824C79.9056 89.7031 82.9303 89.4311 81.9624 89.7031C82.8094 89.4916 83.5655 89.0685 84.2007 88.4641C84.9569 87.4063 85.1384 87.225 84.8057 87.8899C85.0477 87.3157 85.2896 86.7415 85.5316 86.1673C85.4106 86.5299 85.3199 86.8624 85.2896 87.225C85.3804 86.6206 85.4408 85.986 85.5316 85.3816C85.5013 85.6838 85.6223 86.7717 85.4409 85.6233C85.2594 84.3843 85.4711 85.6838 85.5316 85.8651C85.6828 86.4393 86.4995 88.4641 85.6526 86.4695C83.626 85.3211 81.6297 84.1727 79.6031 83.0244C80.3896 83.0848 80.5711 82.7524 78.9075 83.1755C77.7581 83.7194 77.4253 83.8403 77.9093 83.5985C78.3933 83.3266 78.0908 83.5683 77.0624 84.2936C77.1229 84.2332 77.2136 84.1727 77.2741 84.1123C77.7581 83.5985 77.5766 83.8705 76.6994 84.898C76.7902 84.6563 77.0019 84.4145 77.0926 84.1727C76.8507 84.7469 76.6087 85.3211 76.3667 85.8953C76.5179 85.5327 76.6087 85.2002 76.6692 84.8376C76.5784 85.442 76.5179 86.0766 76.4272 86.6811C76.4877 85.9558 76.1852 85.5931 76.6087 87.3761C76.3667 86.3486 77.4556 88.9778 76.8507 88.0108C74.8846 84.9585 76.1852 80.2441 79.3914 78.5819C82.7791 76.5571 86.681 77.6451 88.7983 80.9089Z" fill="#090E1D"/>
<path d="M241.001 117.929C227.454 117.929 216.471 106.97 216.471 93.4503C216.471 79.9311 227.454 68.9716 241.001 68.9716C254.549 68.9716 265.532 79.9311 265.532 93.4503C265.532 106.97 254.549 117.929 241.001 117.929Z" fill="#090E1D"/>
<path d="M217.862 93.45C218.195 106.052 228.146 116.508 241.001 116.539C253.584 116.569 264.171 105.992 264.14 93.45C264.11 80.848 253.645 70.3614 241.001 70.3614C228.146 70.3312 218.165 80.848 217.862 93.45C217.832 95.233 215.049 95.233 215.079 93.45C215.352 82.8426 221.583 73.2324 231.655 69.3339C241.909 65.375 253.917 68.4273 260.934 76.8891C276.088 95.1122 259.664 123.127 236.313 118.866C223.942 116.599 215.412 105.78 215.11 93.45C215.049 91.667 217.802 91.667 217.862 93.45Z" fill="#090E1D"/>
<path d="M241.003 105.78C234.187 105.78 228.662 100.26 228.662 93.45C228.662 86.6403 234.187 81.1199 241.003 81.1199C247.818 81.1199 253.344 86.6403 253.344 93.45C253.344 100.26 247.818 105.78 241.003 105.78Z" fill="white"/>
<path d="M344.808 39.2651C339.515 43.7378 334.252 48.2105 328.959 52.6831C325.813 55.3425 321.215 50.8094 324.391 48.1198C329.685 43.6471 334.948 39.1745 340.241 34.7018C343.417 32.0122 348.014 36.5755 344.808 39.2651Z" fill="#090E1D"/>
<path d="M319.463 17.7175C315.016 23.4292 311.084 29.4734 307.545 35.7895C305.519 39.416 299.923 36.1521 301.95 32.5257C305.761 25.726 310.086 19.3192 314.895 13.1542C317.436 9.89039 322.003 14.4839 319.463 17.7175Z" fill="#090E1D"/>
<path d="M291.845 3.99717C289.939 10.8573 288.517 17.808 287.64 24.8494C287.156 28.9292 280.683 28.9594 281.167 24.8494C282.105 17.2036 283.527 9.70888 285.583 2.27459C286.702 -1.71453 292.933 -0.0221784 291.845 3.99717Z" fill="#090E1D"/>
<path d="M115.688 88.3144C112.239 88.3144 108.761 88.3144 105.313 88.3144C103.528 88.3144 103.528 85.5643 105.313 85.5643C108.761 85.5643 112.239 85.5643 115.688 85.5643C117.472 85.5643 117.472 88.3144 115.688 88.3144Z" fill="#090E1D"/>
<path d="M117.262 80.7586C113.481 78.6431 109.851 76.2557 106.403 73.6265C106.857 73.6265 107.341 73.6265 107.794 73.6265C107.734 73.6567 107.643 73.7172 107.583 73.7474C107.825 73.3545 108.036 72.9616 108.278 72.5386C108.036 72.2666 107.794 72.0248 107.583 71.783C109.307 72.2364 108.581 74.8958 106.857 74.4425C105.254 74.0194 105.072 72.055 106.433 71.2391C106.827 70.9973 107.462 70.9671 107.825 71.2391C111.273 73.8683 114.903 76.2255 118.683 78.3711C120.226 79.2475 118.835 81.635 117.262 80.7586Z" fill="#090E1D"/>
<path d="M124.761 113.849C121.525 117.626 115.173 114.967 115.717 109.981C115.899 108.228 118.682 108.198 118.5 109.981C118.198 112.58 121.071 113.909 122.795 111.885C123.945 110.555 125.911 112.519 124.761 113.849Z" fill="#090E1D"/>
</svg>
